<!DOCTYPE svg PUBLIC "-//W3C//DTD SVG 20010904//EN" "http://www.w3.org/TR/2001/REC-SVG-20010904/DTD/svg10.dtd">
<svg version="1.0" xmlns="http://www.w3.org/2000/svg" width="300px" height="300px" viewBox="0 0 3000 3000" preserveAspectRatio="xMidYMid meet">
<g id="layer101" fill="#030303" stroke="none">
 <path d="M0 1500 l0 -1500 1500 0 1500 0 0 1500 0 1500 -1500 0 -1500 0 0 -1500z"/>
 </g>
<g id="layer102" fill="#ffffff" stroke="none">
 <path d="M0 1500 l0 -1500 1500 0 1500 0 0 1500 0 1500 -1500 0 -1500 0 0 -1500z m566 862 c6 -4 16 -21 22 -39 6 -18 36 -66 66 -107 64 -87 238 -291 346 -408 l45 -48 110 -16 c133 -19 332 -65 403 -93 29 -11 70 -33 92 -47 22 -15 43 -24 46 -21 4 3 -3 21 -15 40 -41 67 -18 117 55 117 33 0 108 -20 194 -53 3 -1 17 7 33 17 50 33 126 31 255 -9 18 -6 22 -4 22 13 0 49 71 55 145 13 50 -28 54 -29 93 -16 35 12 48 12 96 0 107 -28 193 -84 180 -118 -10 -28 -32 -26 -101 9 -38 19 -88 38 -112 41 l-44 6 103 -104 c149 -150 194 -226 162 -276 -13 -20 -58 -25 -93 -10 -49 20 -140 118 -185 198 -34 60 -43 69 -68 69 -17 0 -59 18 -96 40 -36 22 -93 51 -127 65 -65 26 -173 44 -173 29 1 -5 21 -22 45 -37 77 -49 73 -110 -6 -115 -55 -3 -103 24 -126 72 -16 35 -51 55 -146 86 -50 16 -57 7 -22 -30 l29 -30 -18 -36 c-9 -20 -16 -37 -14 -38 35 -24 128 -99 141 -114 25 -28 19 -76 -10 -80 -56 -8 -171 71 -204 142 -18 37 -115 96 -216 129 -68 22 -189 50 -317 72 l-40 7 115 -123 c63 -68 211 -220 329 -340 194 -196 219 -217 255 -223 72 -10 143 -36 175 -63 26 -21 31 -32 28 -62 -2 -28 -9 -39 -31 -49 -36 -17 -75 -5 -158 51 -34 23 -72 47 -83 54 -19 10 -162 28 -541 68 -545 57 -830 131 -948 244 -75 70 -89 141 -39 191 99 99 468 75 718 -46 88 -43 139 -85 164 -135 25 -48 25 -66 1 -79 -26 -13 -48 -4 -55 25 -12 46 -118 122 -231 163 -149 55 -398 79 -493 48 -62 -21 -72 -43 -42 -87 58 -80 249 -150 540 -198 146 -24 808 -102 817 -97 1 1 -37 42 -84 91 -175 183 -450 472 -501 526 l-52 56 -163 17 c-225 23 -239 25 -254 38 -18 15 -16 47 3 55 9 3 86 -1 172 -11 85 -9 156 -15 158 -13 2 2 -52 68 -121 146 -178 204 -285 350 -285 390 0 15 28 51 39 51 3 0 11 -4 17 -8z"/>
 <path d="M2364 1625 c40 -36 56 -43 56 -25 0 10 -74 60 -87 60 -5 -1 10 -16 31 -35z"/>
 <path d="M2569 1453 c15 -29 110 -131 111 -117 0 6 -27 40 -60 75 -34 35 -56 54 -51 42z"/>
 </g>

</svg>